<svg width="2969" height="400" viewBox="0 0 2969 400" fill="none" xmlns="http://www.w3.org/2000/svg">
<g clip-path="url(#clip0_1534_30)">
<g clip-path="url(#clip1_1534_30)">
<path d="M149.804 400C105.787 400 69.7236 389.63 41.6122 368.889C13.8707 347.778 0 317.778 0 278.889C0 270.741 0.924715 260.741 2.77415 248.889C7.58267 222.222 14.4256 190.185 23.3028 152.778C48.4551 50.9259 113.37 0 218.048 0C246.529 0 272.051 4.81482 294.614 14.4445C317.178 23.7037 334.932 37.7778 347.878 56.6667C360.824 75.1852 367.297 97.4074 367.297 123.333C367.297 131.111 366.372 140.926 364.523 152.778C358.975 185.741 352.317 217.778 344.549 248.889C331.603 299.63 309.225 337.593 277.415 362.778C245.605 387.593 203.068 400 149.804 400ZM157.572 320C178.285 320 195.855 313.889 210.28 301.667C225.076 289.444 235.618 270.741 241.906 245.556C250.413 210.741 256.886 180.37 261.325 154.444C262.804 146.667 263.544 138.704 263.544 130.556C263.544 96.8518 245.974 80 210.835 80C190.122 80 172.367 86.1111 157.572 98.3333C143.146 110.556 132.789 129.259 126.501 154.444C119.843 179.259 113.185 209.63 106.527 245.556C105.048 252.963 104.308 260.741 104.308 268.889C104.308 302.963 122.062 320 157.572 320Z" fill="#FF0420"/>
<path d="M423.595 394.444C419.527 394.444 416.383 393.148 414.163 390.556C412.314 387.593 411.759 384.259 412.499 380.556L489.065 19.4445C489.805 15.3704 491.839 12.037 495.168 9.44446C498.497 6.85186 502.011 5.55555 505.71 5.55555H653.295C694.352 5.55555 727.272 14.0741 752.055 31.1111C777.207 48.1481 789.783 72.7778 789.783 105C789.783 114.259 788.673 123.889 786.454 133.889C777.207 176.481 758.527 207.963 730.416 228.333C702.675 248.704 664.576 258.889 616.121 258.889H541.219L515.697 380.556C514.957 384.63 512.923 387.963 509.594 390.556C506.265 393.148 502.751 394.444 499.052 394.444H423.595ZM620.005 182.222C635.54 182.222 649.041 177.963 660.508 169.444C672.344 160.926 680.112 148.704 683.81 132.778C684.92 126.481 685.475 120.926 685.475 116.111C685.475 105.37 682.331 97.2222 676.043 91.6667C669.755 85.7407 659.028 82.7778 643.863 82.7778H577.283L556.2 182.222H620.005Z" fill="#FF0420"/>
<path d="M914.793 394.444C910.725 394.444 907.581 393.148 905.361 390.556C903.142 387.593 902.402 384.259 903.142 380.556L964.728 92.7778H865.968C861.9 92.7778 858.756 91.4815 856.536 88.8889C854.687 85.9259 854.132 82.5926 854.872 78.8889L867.633 19.4445C868.373 15.3704 870.407 12.037 873.736 9.44446C877.065 6.85186 880.579 5.55555 884.278 5.55555H1182.78C1186.84 5.55555 1189.99 6.85186 1192.21 9.44446C1193.69 11.6667 1194.43 13.8889 1194.43 16.1111C1194.43 17.2222 1194.24 18.3333 1193.87 19.4445L1181.11 78.8889C1180.37 82.963 1178.34 86.2963 1175.01 88.8889C1172.05 91.4815 1168.54 92.7778 1164.47 92.7778H1066.26L1004.68 380.556C1003.94 384.63 1001.9 387.963 998.573 390.556C995.244 393.148 991.73 394.444 988.031 394.444H914.793Z" fill="#FF0420"/>
<path d="M1208.58 394.444C1204.51 394.444 1201.37 393.148 1199.15 390.556C1196.93 387.593 1196.19 384.259 1196.93 380.556L1274.05 19.4445C1274.79 15.3704 1276.82 12.037 1280.15 9.44446C1283.48 6.85186 1287 5.55555 1290.7 5.55555H1365.6C1369.67 5.55555 1372.81 6.85186 1375.03 9.44446C1376.51 11.6667 1377.25 13.8889 1377.25 16.1111C1377.25 17.2222 1377.06 18.3333 1376.69 19.4445L1300.13 380.556C1299.39 384.63 1297.35 387.963 1294.02 390.556C1290.7 393.148 1287.18 394.444 1283.48 394.444H1208.58Z" fill="#FF0420"/>
<path d="M1419.85 394.444C1415.78 394.444 1412.63 393.148 1410.41 390.556C1408.19 387.963 1407.45 384.63 1408.19 380.556L1484.76 19.4445C1485.5 15.3704 1487.53 12.037 1490.86 9.44446C1494.19 6.85186 1497.89 5.55555 1501.96 5.55555H1561.88C1570.76 5.55555 1576.49 9.62963 1579.08 17.7778L1639.56 192.778L1774.38 17.7778C1776.23 14.8148 1778.82 12.037 1782.15 9.44446C1785.85 6.85186 1790.29 5.55555 1795.46 5.55555H1855.94C1860.01 5.55555 1863.15 6.85186 1865.37 9.44446C1866.85 11.6667 1867.59 13.8889 1867.59 16.1111C1867.59 17.2222 1867.41 18.3333 1867.04 19.4445L1790.47 380.556C1789.73 384.63 1787.7 387.963 1784.37 390.556C1781.04 393.148 1777.53 394.444 1773.83 394.444H1706.69C1702.62 394.444 1699.48 393.148 1697.26 390.556C1695.41 387.593 1694.86 384.259 1695.6 380.556L1738.87 175.556L1653.98 288.333C1650.28 292.407 1646.77 295.556 1643.44 297.778C1640.11 300 1636.23 301.111 1631.79 301.111H1602.94C1595.17 301.111 1589.81 296.852 1586.85 288.333L1547.46 170.556L1503.07 380.556C1502.33 384.63 1500.3 387.963 1496.97 390.556C1493.64 393.148 1490.12 394.444 1486.42 394.444H1419.85Z" fill="#FF0420"/>
<path d="M1909.58 394.444C1905.51 394.444 1902.37 393.148 1900.15 390.556C1897.93 387.593 1897.19 384.259 1897.93 380.556L1975.05 19.4445C1975.79 15.3704 1977.83 12.037 1981.16 9.44446C1984.48 6.85186 1988 5.55555 1991.7 5.55555H2066.6C2070.67 5.55555 2073.81 6.85186 2076.03 9.44446C2077.51 11.6667 2078.25 13.8889 2078.25 16.1111C2078.25 17.2222 2078.07 18.3333 2077.7 19.4445L2001.13 380.556C2000.39 384.63 1998.36 387.963 1995.03 390.556C1991.7 393.148 1988.18 394.444 1984.48 394.444H1909.58Z" fill="#FF0420"/>
<path d="M2257.89 400C2225.34 400 2197.41 395.556 2174.11 386.667C2151.18 377.778 2133.79 365.926 2121.96 351.111C2110.49 336.296 2104.76 319.815 2104.76 301.667C2104.76 298.704 2105.13 294.259 2105.87 288.333C2106.61 285 2108.09 282.222 2110.31 280C2112.89 277.778 2115.85 276.667 2119.18 276.667H2190.2C2194.64 276.667 2197.97 277.407 2200.19 278.889C2202.78 280.37 2205.37 282.963 2207.96 286.667C2210.54 296.296 2216.46 304.259 2225.71 310.556C2235.33 316.852 2248.46 320 2265.1 320C2286.19 320 2303.2 316.667 2316.15 310C2329.09 303.333 2336.86 294.259 2339.45 282.778C2339.82 281.296 2340 279.074 2340 276.111C2340 266.852 2334.27 259.63 2322.81 254.444C2311.34 248.889 2290.26 242.407 2259.55 235C2223.68 227.222 2196.49 215.556 2177.99 200C2159.5 184.074 2150.25 163.333 2150.25 137.778C2150.25 128.889 2151.36 119.815 2153.58 110.556C2160.98 76.1111 2179.29 49.0741 2208.51 29.4445C2238.1 9.81482 2276.2 0 2322.81 0C2350.92 0 2375.88 5 2397.71 15C2419.53 25 2436.36 37.7778 2448.2 53.3333C2460.4 68.5185 2466.51 83.7037 2466.51 98.8889C2466.51 103.333 2466.32 106.481 2465.95 108.333C2465.21 111.667 2463.55 114.444 2460.96 116.667C2458.74 118.889 2455.96 120 2452.64 120H2378.29C2370.15 120 2364.6 116.852 2361.64 110.556C2361.27 102.037 2356.83 94.8148 2348.33 88.8889C2339.82 82.963 2328.72 80 2315.04 80C2298.76 80 2285.26 82.963 2274.54 88.8889C2264.18 94.8148 2257.71 103.519 2255.12 115C2254.75 116.852 2254.56 119.259 2254.56 122.222C2254.56 131.111 2259.74 138.519 2270.1 144.444C2280.82 150 2299.5 155.741 2326.13 161.667C2367.56 169.815 2397.71 181.481 2416.57 196.667C2435.81 211.852 2445.42 232.037 2445.42 257.222C2445.42 265.741 2444.31 275 2442.09 285C2433.96 322.778 2414.17 351.481 2382.73 371.111C2351.66 390.37 2310.04 400 2257.89 400Z" fill="#FF0420"/>
<path d="M2519.03 394.444C2514.96 394.444 2511.82 393.148 2509.6 390.556C2507.38 387.963 2506.64 384.63 2507.38 380.556L2583.94 19.4445C2584.68 15.3704 2586.72 12.037 2590.05 9.44446C2593.38 6.85186 2597.07 5.55555 2601.14 5.55555H2661.07C2669.94 5.55555 2675.68 9.62963 2678.26 17.7778L2738.74 192.778L2873.57 17.7778C2875.41 14.8148 2878 12.037 2881.33 9.44446C2885.03 6.85186 2889.47 5.55555 2894.65 5.55555H2955.12C2959.19 5.55555 2962.34 6.85186 2964.56 9.44446C2966.04 11.6667 2966.78 13.8889 2966.78 16.1111C2966.78 17.2222 2966.59 18.3333 2966.22 19.4445L2889.66 380.556C2888.92 384.63 2886.88 387.963 2883.55 390.556C2880.22 393.148 2876.71 394.444 2873.01 394.444H2805.88C2801.81 394.444 2798.66 393.148 2796.44 390.556C2794.59 387.593 2794.04 384.259 2794.78 380.556L2838.06 175.556L2753.17 288.333C2749.47 292.407 2745.95 295.556 2742.63 297.778C2739.3 300 2735.41 301.111 2730.97 301.111H2702.12C2694.35 301.111 2688.99 296.852 2686.03 288.333L2646.64 170.556L2602.25 380.556C2601.51 384.63 2599.48 387.963 2596.15 390.556C2592.82 393.148 2589.31 394.444 2585.61 394.444H2519.03Z" fill="#FF0420"/>
</g>
</g>
<defs>
<clipPath id="clip0_1534_30">
<rect width="2968.12" height="400" fill="white"/>
</clipPath>
<clipPath id="clip1_1534_30">
<rect width="2968.12" height="400" fill="white"/>
</clipPath>
</defs>
</svg>
